<svg width="219" height="59" viewBox="0 0 219 59" fill="none" xmlns="http://www.w3.org/2000/svg">
<path d="M174.642 36V14.1818H187.724V16.5256H177.284V23.8977H186.744V26.2415H177.284V36H174.642Z" fill="#8D6AFF"/>
<path d="M200.449 16.5256V14.1818H216.812V16.5256H209.952V36H207.31V16.5256H200.449Z" fill="#8D6AFF"/>
<path d="M195.284 14.1818V36H192.642V14.1818H195.284Z" fill="#8D6AFF"/>
<path d="M50.05 14.99H57.88C58.88 14.99 59.79 15.11 60.61 15.35C61.45 15.57 62.16 15.91 62.74 16.37C63.34 16.81 63.8 17.37 64.12 18.05C64.46 18.71 64.63 19.49 64.63 20.39C64.63 21.03 64.55 21.58 64.39 22.04C64.23 22.48 64.06 22.85 63.88 23.15C63.66 23.51 63.41 23.81 63.13 24.05C63.57 24.33 63.97 24.69 64.33 25.13C64.63 25.51 64.9 25.99 65.14 26.57C65.4 27.15 65.53 27.86 65.53 28.7C65.53 29.66 65.36 30.53 65.02 31.31C64.68 32.09 64.19 32.76 63.55 33.32C62.93 33.86 62.16 34.28 61.24 34.58C60.34 34.86 59.33 35 58.21 35H50.05V14.99ZM56.95 30.29C58.47 30.29 59.23 29.71 59.23 28.55C59.23 27.39 58.47 26.81 56.95 26.81H56.23V30.29H56.95ZM58.45 21.08C58.45 20.16 57.95 19.7 56.95 19.7H56.23V22.46H56.95C57.95 22.46 58.45 22 58.45 21.08ZM68.6664 14.99H80.4564V20.24H75.0564V22.46H80.3664V27.44H75.0564V29.75H80.6664V35H68.6664V14.99ZM88.8252 26.39L82.6152 14.99H89.7252L92.0352 19.22L94.3152 14.99H101.425L95.2152 26.39V35H88.8252V26.39ZM103.223 25.01C103.223 23.57 103.493 22.21 104.033 20.93C104.593 19.65 105.343 18.54 106.283 17.6C107.243 16.64 108.363 15.89 109.643 15.35C110.923 14.79 112.283 14.51 113.723 14.51C115.163 14.51 116.523 14.79 117.803 15.35C119.083 15.89 120.193 16.64 121.133 17.6C122.093 18.54 122.843 19.65 123.383 20.93C123.943 22.21 124.223 23.57 124.223 25.01C124.223 26.45 123.943 27.81 123.383 29.09C122.843 30.37 122.093 31.49 121.133 32.45C120.193 33.39 119.083 34.14 117.803 34.7C116.523 35.24 115.163 35.51 113.723 35.51C112.283 35.51 110.923 35.24 109.643 34.7C108.363 34.14 107.243 33.39 106.283 32.45C105.343 31.49 104.593 30.37 104.033 29.09C103.493 27.81 103.223 26.45 103.223 25.01ZM109.523 25.01C109.523 25.59 109.633 26.14 109.853 26.66C110.073 27.16 110.373 27.6 110.753 27.98C111.133 28.36 111.573 28.66 112.073 28.88C112.593 29.1 113.143 29.21 113.723 29.21C114.303 29.21 114.843 29.1 115.343 28.88C115.863 28.66 116.313 28.36 116.693 27.98C117.073 27.6 117.373 27.16 117.593 26.66C117.813 26.14 117.923 25.59 117.923 25.01C117.923 24.43 117.813 23.89 117.593 23.39C117.373 22.87 117.073 22.42 116.693 22.04C116.313 21.66 115.863 21.36 115.343 21.14C114.843 20.92 114.303 20.81 113.723 20.81C113.143 20.81 112.593 20.92 112.073 21.14C111.573 21.36 111.133 21.66 110.753 22.04C110.373 22.42 110.073 22.87 109.853 23.39C109.633 23.89 109.523 24.43 109.523 25.01ZM127.68 14.99H132.93L138.45 22.7V14.99H144.72V35H139.44L133.95 27.32V35H127.68V14.99ZM148.611 35V14.99H154.161C156.041 14.99 157.711 15.2 159.171 15.62C160.651 16.04 161.891 16.67 162.891 17.51C163.911 18.35 164.681 19.4 165.201 20.66C165.741 21.9 166.011 23.34 166.011 24.98C166.011 26.62 165.741 28.07 165.201 29.33C164.681 30.57 163.911 31.61 162.891 32.45C161.891 33.29 160.651 33.93 159.171 34.37C157.711 34.79 156.041 35 154.161 35H148.611ZM155.001 29.3C156.501 29.3 157.661 28.95 158.481 28.25C159.301 27.53 159.711 26.44 159.711 24.98C159.711 23.52 159.301 22.44 158.481 21.74C157.661 21.04 156.501 20.69 155.001 20.69V29.3Z" fill="white"/>
<g filter="url(#filter0_d_380_5774)">
<rect x="4" y="16.5557" width="31.6305" height="31.6305" rx="11" transform="rotate(-21.4289 4 16.5557)" fill="#7555DF"/>
</g>
<path d="M16.7056 27.976L15.9843 27.3021C15.2129 26.5618 15.2129 25.3659 15.9843 24.6256C16.7858 23.8758 18.0481 23.8758 18.8296 24.6256L21.4143 27.0648L25.6621 23.0406L23.0874 20.5919C22.2959 19.8516 22.2959 18.6557 23.0874 17.8964C23.8688 17.1656 25.1312 17.1656 25.9126 17.8964L26.6239 18.5797L32.2944 23.9517L33.0157 24.6256C33.7871 25.3659 33.7871 26.5618 33.0157 27.3021C32.2142 28.0519 30.9519 28.0519 30.1704 27.3021L27.5857 24.8629L23.3379 28.8871L25.9126 31.3359C26.7041 32.0762 26.7041 33.2721 25.9126 34.0314C25.1312 34.7622 23.8688 34.7622 23.0874 34.0314L22.3761 33.348L16.7056 27.976ZM15.6437 33.0063L16.7056 32.0002L15.293 30.662C14.9023 30.2918 14.9023 29.6939 15.293 29.3237C15.6838 28.9536 16.3149 28.9536 16.7056 29.3237L20.9535 33.348C21.3442 33.7182 21.3442 34.3161 20.9535 34.6863C20.5627 35.0564 19.9316 35.0564 19.5409 34.6863L18.1283 33.348L17.0663 34.3541L15.6437 33.0063ZM31.9337 17.5737L33.3563 18.9214L32.2944 19.9275L33.707 21.2657C34.0977 21.6359 34.0977 22.2338 33.707 22.604C33.3162 22.9836 32.6851 22.9836 32.2944 22.604L28.0465 18.5797C27.6558 18.2096 27.6558 17.6116 28.0465 17.2415C28.4373 16.8713 29.0684 16.8713 29.4591 17.2415L30.8717 18.5797L31.9337 17.5737Z" fill="white"/>
<defs>
<filter id="filter0_d_380_5774" x="0.255371" y="0.254883" width="58.4893" height="58.4893" filterUnits="userSpaceOnUse" color-interpolation-filters="sRGB">
<feFlood flood-opacity="0" result="BackgroundImageFix"/>
<feColorMatrix in="SourceAlpha" type="matrix" values="0 0 0 0 0 0 0 0 0 0 0 0 0 0 0 0 0 0 127 0" result="hardAlpha"/>
<feOffset dx="5" dy="4"/>
<feGaussianBlur stdDeviation="6"/>
<feComposite in2="hardAlpha" operator="out"/>
<feColorMatrix type="matrix" values="0 0 0 0 0.552941 0 0 0 0 0.415686 0 0 0 0 1 0 0 0 0.25 0"/>
<feBlend mode="normal" in2="BackgroundImageFix" result="effect1_dropShadow_380_5774"/>
<feBlend mode="normal" in="SourceGraphic" in2="effect1_dropShadow_380_5774" result="shape"/>
</filter>
</defs>
</svg>
