<svg width="18" height="28" viewBox="0 0 18 28" fill="none" xmlns="http://www.w3.org/2000/svg">
<circle cx="9" cy="14" r="9" fill="#0D0D0D" fill-opacity="0.22"/>
<path d="M9.48 8.115C9.68 8.065 9.87 8.08 10.05 8.16C10.32 8.29 10.44 8.52 10.41 8.85C10.4 8.9 10.39 8.945 10.38 8.985C10.27 9.365 10.02 9.62 9.63 9.75C9.61 9.75 9.59 9.755 9.57 9.765C9.28 9.845 9.035 9.785 8.835 9.585C8.605 9.345 8.58 9.055 8.76 8.715C8.9 8.395 9.14 8.195 9.48 8.115ZM8.145 11.4C8.285 11.37 8.465 11.365 8.685 11.385C9.265 11.495 9.63 11.81 9.78 12.33C9.83 12.54 9.83 12.76 9.78 12.99L9.105 14.82C8.655 16 8.425 16.615 8.415 16.665C8.295 17.055 8.29 17.305 8.4 17.415C8.43 17.435 8.485 17.445 8.565 17.445C8.675 17.445 8.745 17.44 8.775 17.43C9.205 17.28 9.535 16.835 9.765 16.095C9.785 16.055 9.8 16.01 9.81 15.96C9.86 15.81 9.91 15.73 9.96 15.72C9.99 15.71 10.08 15.705 10.23 15.705C10.42 15.705 10.525 15.715 10.545 15.735C10.595 15.775 10.605 15.86 10.575 15.99C10.385 16.65 10.085 17.185 9.675 17.595C9.395 17.855 9.11 18.03 8.82 18.12C8.72 18.14 8.585 18.15 8.415 18.15C8.235 18.15 8.105 18.14 8.025 18.12C7.705 18.04 7.465 17.895 7.305 17.685C7.185 17.545 7.105 17.385 7.065 17.205C7.015 16.985 7.015 16.76 7.065 16.53L7.755 14.685C8.215 13.455 8.46 12.78 8.49 12.66C8.53 12.49 8.53 12.34 8.49 12.21C8.44 12.09 8.33 12.05 8.16 12.09C7.86 12.15 7.59 12.38 7.35 12.78C7.2 13.03 7.08 13.335 6.99 13.695C6.96 13.755 6.94 13.79 6.93 13.8C6.91 13.82 6.805 13.83 6.615 13.83H6.33L6.285 13.785C6.235 13.745 6.24 13.64 6.3 13.47C6.55 12.63 6.955 12.025 7.515 11.655C7.565 11.625 7.62 11.595 7.68 11.565C7.86 11.465 8.015 11.41 8.145 11.4Z" fill="white" fill-opacity="0.44"/>
</svg>
