<svg width="416" height="356" viewBox="0 0 416 356" fill="none" xmlns="http://www.w3.org/2000/svg">
<ellipse cx="190.42" cy="307.935" rx="23.5" ry="18" transform="rotate(71.8658 190.42 307.935)" fill="#F7E43D" fill-opacity="0.5"/>
<path d="M290 121.5L326.701 171.07C327.833 172.599 329.622 173.5 331.523 173.5H371.75H409C412.314 173.5 415 176.186 415 179.5V349C415 352.314 412.314 355 409 355H7C3.68629 355 1 352.314 1 349V222V7C1 3.68629 3.68629 1 7 1H127M290 121.5V7C290 3.68629 287.314 1 284 1H127M290 121.5H127M127 1V87.5" stroke="#777777"/>
<ellipse cx="171.5" cy="167" rx="23.5" ry="18" transform="rotate(-16.1682 171.5 167)" fill="#F73D3D" fill-opacity="0.5"/>
<ellipse cx="182.5" cy="157" rx="23.5" ry="18" fill="#F73D3D" fill-opacity="0.5"/>
<ellipse cx="194.5" cy="151" rx="23.5" ry="18" fill="#F73D3D" fill-opacity="0.5"/>
<ellipse cx="194.5" cy="178" rx="23.5" ry="18" fill="#F73D3D" fill-opacity="0.5"/>
<ellipse cx="217.5" cy="167" rx="23.5" ry="18" fill="#F73D3D" fill-opacity="0.5"/>
<ellipse cx="234.5" cy="154" rx="23.5" ry="18" transform="rotate(19.7488 234.5 154)" fill="#F7963D" fill-opacity="0.5"/>
<ellipse cx="167.5" cy="247" rx="23.5" ry="18" fill="#F7963D" fill-opacity="0.5"/>
<ellipse cx="153.5" cy="188" rx="23.5" ry="18" fill="#F7963D" fill-opacity="0.5"/>
<ellipse cx="158.5" cy="255" rx="23.5" ry="18" fill="#F7963D" fill-opacity="0.5"/>
<ellipse cx="88.5" cy="273" rx="23.5" ry="18" fill="#F7963D" fill-opacity="0.5"/>
<ellipse cx="87.5" cy="279" rx="23.5" ry="18" fill="#F7963D" fill-opacity="0.5"/>
<ellipse cx="96.5" cy="270" rx="23.5" ry="18" fill="#F7963D" fill-opacity="0.5"/>
<ellipse cx="94.5" cy="313" rx="23.5" ry="18" fill="#F7963D" fill-opacity="0.5"/>
<ellipse cx="249.5" cy="173" rx="23.5" ry="18" transform="rotate(-13.4897 249.5 173)" fill="#F7E43D" fill-opacity="0.5"/>
<ellipse cx="233.5" cy="243" rx="23.5" ry="18" fill="#F7E43D" fill-opacity="0.5"/>
<ellipse cx="234.5" cy="255" rx="23.5" ry="18" transform="rotate(70.0462 234.5 255)" fill="#F7E43D" fill-opacity="0.5"/>
<ellipse cx="256.5" cy="243" rx="23.5" ry="18" fill="#F7E43D" fill-opacity="0.5"/>
<ellipse cx="273.5" cy="244" rx="23.5" ry="18" fill="#F7E43D" fill-opacity="0.5"/>
<ellipse cx="296.5" cy="255" rx="23.5" ry="18" transform="rotate(-26.6169 296.5 255)" fill="#F7E43D" fill-opacity="0.5"/>
<ellipse cx="264.5" cy="157" rx="23.5" ry="18" transform="rotate(24.7488 264.5 157)" fill="#F7E43D" fill-opacity="0.5"/>
<ellipse cx="39.5" cy="78" rx="23.5" ry="18" fill="#F7E43D" fill-opacity="0.5"/>
<ellipse cx="47.5" cy="73" rx="23.5" ry="18" fill="#F7E43D" fill-opacity="0.5"/>
<ellipse cx="81.5" cy="88" rx="23.5" ry="18" transform="rotate(29.5797 81.5 88)" fill="#F7E43D" fill-opacity="0.5"/>
<ellipse cx="55.9613" cy="115.373" rx="23.5" ry="18" transform="rotate(79.5573 55.9613 115.373)" fill="#F7E43D" fill-opacity="0.5"/>
<ellipse cx="158.605" cy="38.4296" rx="23.5" ry="18" transform="rotate(83.3376 158.605 38.4296)" fill="#F7E43D" fill-opacity="0.5"/>
<ellipse cx="40.8744" cy="130.317" rx="23.5" ry="18" transform="rotate(17.782 40.8744 130.317)" fill="#F7E43D" fill-opacity="0.5"/>
<ellipse cx="178.548" cy="59.0621" rx="23.5" ry="18" transform="rotate(33.99 178.548 59.0621)" fill="#F7E43D" fill-opacity="0.5"/>
<ellipse cx="197.548" cy="32.0621" rx="23.5" ry="18" transform="rotate(33.99 197.548 32.0621)" fill="#F7E43D" fill-opacity="0.5"/>
<ellipse cx="217.548" cy="71.0621" rx="23.5" ry="18" transform="rotate(33.99 217.548 71.0621)" fill="#F7E43D" fill-opacity="0.5"/>
<ellipse cx="234.548" cy="33.0621" rx="23.5" ry="18" transform="rotate(33.99 234.548 33.0621)" fill="#F7E43D" fill-opacity="0.5"/>
<ellipse cx="237.548" cy="62.0621" rx="23.5" ry="18" transform="rotate(33.99 237.548 62.0621)" fill="#F7E43D" fill-opacity="0.5"/>
<ellipse cx="355.021" cy="294.539" rx="23.5" ry="18" transform="rotate(56.2608 355.021 294.539)" fill="#F7E43D" fill-opacity="0.5"/>
<ellipse cx="284.572" cy="181.815" rx="23.5" ry="18" transform="rotate(16.1124 284.572 181.815)" fill="#F7E43D" fill-opacity="0.5"/>
<ellipse cx="165.746" cy="313.127" rx="23.5" ry="18" transform="rotate(62.8239 165.746 313.127)" fill="#F7E43D" fill-opacity="0.5"/>
<ellipse cx="190.42" cy="307.935" rx="23.5" ry="18" transform="rotate(71.8658 190.42 307.935)" fill="#F7E43D" fill-opacity="0.5"/>
<ellipse cx="271.42" cy="309.935" rx="23.5" ry="18" transform="rotate(71.8658 271.42 309.935)" fill="#F7E43D" fill-opacity="0.5"/>
<ellipse cx="197.5" cy="250" rx="23.5" ry="18" transform="rotate(-28.9628 197.5 250)" fill="#F7E43D" fill-opacity="0.5"/>
<rect x="136.5" y="127.5" width="148" height="22" rx="3.5" stroke="#777777"/>
<rect x="137.5" y="180.5" width="148" height="22" rx="3.5" stroke="#777777"/>
<rect x="137.5" y="302.5" width="148" height="22" rx="3.5" stroke="#777777"/>
<rect x="11.5" y="6.5" width="45" height="36" rx="3.5" stroke="#777777"/>
<rect x="11.5" y="54.5" width="45" height="36" rx="3.5" stroke="#777777"/>
<rect x="11.5" y="102.5" width="45" height="36" rx="3.5" stroke="#777777"/>
<rect x="143.5" y="231.5" width="32" height="26" rx="3.5" stroke="#777777"/>
<rect x="188.5" y="231.5" width="32" height="26" rx="3.5" stroke="#777777"/>
<rect x="233.5" y="230.5" width="32" height="26" rx="3.5" stroke="#777777"/>
<rect x="278.5" y="230.5" width="32" height="26" rx="3.5" stroke="#777777"/>
<rect x="311.5" y="274.5" width="32" height="26" rx="3.5" stroke="#777777"/>
<rect x="11.5" y="169.5" width="45" height="20" rx="3.5" stroke="#777777"/>
<rect x="11.5" y="196.5" width="45" height="20" rx="3.5" stroke="#777777"/>
<rect x="11.5" y="223.5" width="45" height="20" rx="3.5" stroke="#777777"/>
<rect x="11.5" y="250.5" width="45" height="20" rx="3.5" stroke="#777777"/>
<rect x="11.5" y="277.5" width="45" height="20" rx="3.5" stroke="#777777"/>
<rect x="11.5" y="304.5" width="45" height="20" rx="3.5" stroke="#777777"/>
<ellipse cx="39.5" cy="178" rx="23.5" ry="18" fill="#F73D3D" fill-opacity="0.5"/>
<ellipse cx="39.5" cy="243" rx="23.5" ry="18" fill="#F73D3D" fill-opacity="0.5"/>
<ellipse cx="39.5" cy="295" rx="23.5" ry="18" fill="#F73D3D" fill-opacity="0.5"/>
<ellipse cx="47.5" cy="196" rx="23.5" ry="18" fill="#F73D3D" fill-opacity="0.5"/>
<ellipse cx="47.5" cy="261" rx="23.5" ry="18" fill="#F73D3D" fill-opacity="0.5"/>
<ellipse cx="47.5" cy="313" rx="23.5" ry="18" fill="#F73D3D" fill-opacity="0.5"/>
<ellipse cx="57.5" cy="185" rx="23.5" ry="18" fill="#F73D3D" fill-opacity="0.5"/>
<ellipse cx="57.5" cy="250" rx="23.5" ry="18" fill="#F73D3D" fill-opacity="0.5"/>
<ellipse cx="57.5" cy="302" rx="23.5" ry="18" fill="#F73D3D" fill-opacity="0.5"/>
<ellipse cx="70.5" cy="190" rx="23.5" ry="18" fill="#F73D3D" fill-opacity="0.5"/>
<ellipse cx="70.5" cy="255" rx="23.5" ry="18" fill="#F73D3D" fill-opacity="0.5"/>
<ellipse cx="70.5" cy="307" rx="23.5" ry="18" fill="#F73D3D" fill-opacity="0.5"/>
</svg>
