<svg width="64" height="103" viewBox="0 0 64 103" fill="none" xmlns="http://www.w3.org/2000/svg">
<rect y="4" width="17" height="12" fill="#8C833A"/>
<rect y="16" width="17" height="12" fill="#C1B33B"/>
<rect y="28" width="17" height="12" fill="#DCCB3C"/>
<rect y="40" width="17" height="12" fill="#C1793B"/>
<rect y="52" width="17" height="12" fill="#DC873C"/>
<rect y="64" width="17" height="12" fill="#C1363B"/>
<rect y="76" width="17" height="12" fill="#DC393C"/>
<rect y="88" width="17" height="12" fill="#E93B3C"/>
<path d="M34.6136 13L36.0625 4.27273H36.8594L35.5298 12.2841H39.6889L39.5696 13H34.6136ZM48.8945 8.68324C48.744 9.58381 48.4542 10.3665 48.0252 11.0312C47.5962 11.696 47.0721 12.2102 46.4528 12.5739C45.8335 12.9375 45.1602 13.1193 44.4329 13.1193C43.6857 13.1193 43.055 12.9332 42.5408 12.5611C42.0295 12.1861 41.6673 11.6605 41.4542 10.9844C41.2411 10.3054 41.2099 9.5071 41.3604 8.58949C41.511 7.68892 41.8008 6.90625 42.2298 6.24148C42.6587 5.5767 43.1843 5.0625 43.8065 4.69886C44.4286 4.33523 45.1048 4.15341 45.8349 4.15341C46.5735 4.15341 47.1985 4.33949 47.7099 4.71165C48.2212 5.08381 48.5849 5.60937 48.8008 6.28835C49.0167 6.96449 49.0479 7.76278 48.8945 8.68324ZM48.1317 8.58949C48.2624 7.81108 48.2454 7.14773 48.0806 6.59943C47.9187 6.05114 47.6403 5.6321 47.2454 5.34233C46.8505 5.04972 46.3718 4.90341 45.8093 4.90341C45.2269 4.90341 44.68 5.05398 44.1687 5.35511C43.6573 5.65341 43.2212 6.08523 42.8604 6.65057C42.4996 7.21307 42.2525 7.89062 42.119 8.68324C41.9911 9.45881 42.0082 10.1222 42.1701 10.6733C42.332 11.2216 42.6104 11.642 43.0053 11.9347C43.4031 12.2244 43.8846 12.3693 44.4499 12.3693C45.0352 12.3693 45.5835 12.2187 46.0948 11.9176C46.6062 11.6165 47.0408 11.1847 47.3988 10.6222C47.7596 10.0568 48.0039 9.37926 48.1317 8.58949ZM51.6229 13L50.6811 4.27273H51.4908L52.2195 11.777H52.2876L55.5135 4.27273H56.4339L57.1669 11.777H57.2351L60.4567 4.27273H61.2749L57.4354 13H56.5788L55.7862 5.59801H55.7308L52.4751 13H51.6229Z" fill="white"/>
<path d="M34.6136 98L36.0625 89.2727H36.8594L36.1946 93.2741H41.1463L41.8111 89.2727H42.608L41.1591 98H40.3622L41.027 93.9901H36.0753L35.4105 98H34.6136ZM45.7188 89.2727L44.2699 98H43.473L44.9219 89.2727H45.7188ZM53.6129 92C53.5845 91.7074 53.5192 91.4347 53.4169 91.1818C53.3146 90.9261 53.1712 90.7031 52.9865 90.5128C52.8018 90.3224 52.5732 90.1733 52.3004 90.0653C52.0305 89.9574 51.7124 89.9034 51.3459 89.9034C50.8033 89.9034 50.2777 90.0469 49.7692 90.3338C49.2635 90.6207 48.8246 91.0426 48.4524 91.5994C48.0831 92.1534 47.8317 92.8324 47.6982 93.6364C47.5675 94.4233 47.5803 95.0952 47.7365 95.652C47.8928 96.2088 48.1697 96.6349 48.5675 96.9304C48.9652 97.223 49.4609 97.3693 50.0547 97.3693C50.5888 97.3693 51.0859 97.25 51.5462 97.0114C52.0064 96.7699 52.3942 96.4276 52.7095 95.9844C53.0249 95.5412 53.2294 95.0156 53.3232 94.4077L53.5618 94.4886H50.7663L50.8984 93.7727H54.2095L54.0774 94.4886C53.9581 95.2358 53.7038 95.8807 53.3146 96.4233C52.9254 96.9659 52.4425 97.3849 51.8658 97.6804C51.2891 97.973 50.6612 98.1193 49.9822 98.1193C49.2209 98.1193 48.5845 97.9361 48.0732 97.5696C47.5646 97.2003 47.2081 96.6804 47.0036 96.0099C46.799 95.3395 46.7734 94.5483 46.9268 93.6364C47.0348 92.9517 47.2251 92.3338 47.4979 91.7827C47.7706 91.2315 48.1058 90.7614 48.5036 90.3722C48.9041 89.9801 49.3501 89.679 49.8416 89.4688C50.3359 89.2585 50.8587 89.1534 51.4098 89.1534C51.8871 89.1534 52.3118 89.2287 52.6839 89.3793C53.0561 89.5298 53.3714 89.7372 53.63 90.0014C53.8885 90.2628 54.0845 90.5653 54.218 90.9091C54.3544 91.25 54.4254 91.6136 54.4311 92H53.6129ZM55.4847 98L56.9336 89.2727H57.7305L57.0657 93.2741H62.0174L62.6822 89.2727H63.479L62.0302 98H61.2333L61.8981 93.9901H56.9464L56.2816 98H55.4847Z" fill="white"/>
</svg>
